<svg xmlns="http://www.w3.org/2000/svg" xmlns:xlink="http://www.w3.org/1999/xlink" id="Layer_1" style="width: 200px; height: 200px; transform-origin: 50% 50%; transform: scaleX(-1) scaleY(-1) rotate(0deg);" version="1.1" viewBox="0 0 120 120" xml:space="preserve" preserveAspectRatio="xMidYMid meet"><style type="text/css">
	.st0{fill:#FFBC51;}
</style><g fill="#000000" style="fill:#000000;stroke:none" stroke="none" class=""><path class="st0" d="M99.9,59.3c0-0.3-0.1-0.5-0.1-0.7s-0.1-0.5-0.2-0.7s-0.2-0.5-0.3-0.7c-0.1-0.2-0.2-0.5-0.3-0.7   c-0.1-0.2-0.2-0.4-0.4-0.6c-0.1-0.2-0.3-0.5-0.5-0.7C98,55.1,98,55,97.9,54.9L70.7,24.3c-2.9-3.2-7.8-3.5-11.1-0.6   c-3.2,2.9-3.5,7.8-0.6,11.1L81.6,60L59,85.3c-2.9,3.2-2.6,8.2,0.6,11.1c1.5,1.3,3.4,2,5.2,2c2.2,0,4.3-0.9,5.8-2.6L98,65.2   c0.1-0.1,0.1-0.2,0.2-0.3c0.2-0.2,0.3-0.4,0.5-0.7c0.1-0.2,0.3-0.4,0.4-0.6c0.1-0.2,0.2-0.5,0.3-0.7c0.1-0.2,0.2-0.5,0.3-0.7   c0.1-0.2,0.1-0.5,0.2-0.7c0-0.2,0.1-0.5,0.1-0.7s0-0.5,0-0.7C99.9,59.7,99.9,59.5,99.9,59.3z" fill="#000000" style="fill:#000000;stroke:none" stroke="none"/><path class="st0" d="M61.2,64.9c0.2-0.2,0.3-0.4,0.5-0.7c0.1-0.2,0.3-0.4,0.4-0.6c0.1-0.2,0.2-0.5,0.3-0.7s0.2-0.5,0.3-0.7   s0.1-0.5,0.2-0.7c0-0.2,0.1-0.5,0.1-0.7s0-0.5,0-0.7s0-0.5,0-0.7c0-0.3-0.1-0.5-0.1-0.7s-0.1-0.5-0.2-0.7c-0.1-0.2-0.2-0.5-0.3-0.7   s-0.2-0.5-0.3-0.7s-0.2-0.4-0.4-0.6c-0.1-0.2-0.3-0.5-0.5-0.7c-0.1-0.1-0.1-0.2-0.2-0.3L33.7,24.3c-2.9-3.2-7.8-3.5-11.1-0.6   c-3.2,2.9-3.5,7.8-0.6,11.1L44.7,60L22,85.3c-2.9,3.2-2.6,8.2,0.6,11.1c1.5,1.3,3.4,2,5.2,2c2.2,0,4.3-0.9,5.8-2.6L61,65.2   C61.1,65.1,61.1,65,61.2,64.9z" fill="#000000" style="fill:#000000;stroke:none" stroke="none"/></g></svg>